<svg width="90" height="90" viewBox="0 0 90 90" fill="none" xmlns="http://www.w3.org/2000/svg">
<path d="M45 9C25.119 9 9 25.119 9 45C9 61.869 20.616 75.984 36.276 79.89C36.108 79.404 36 78.84 36 78.141V71.988C34.539 71.988 32.091 71.988 31.476 71.988C29.013 71.988 26.823 70.929 25.761 68.961C24.582 66.774 24.378 63.429 21.456 61.383C20.589 60.702 21.249 59.925 22.248 60.03C24.093 60.552 25.623 61.818 27.063 63.696C28.497 65.577 29.172 66.003 31.851 66.003C33.15 66.003 35.094 65.928 36.924 65.64C37.908 63.141 39.609 60.84 41.688 59.754C29.7 58.521 23.979 52.557 23.979 44.46C23.979 40.974 25.464 37.602 27.987 34.761C27.159 31.941 26.118 26.19 28.305 24C33.699 24 36.96 27.498 37.743 28.443C40.431 27.522 43.383 27 46.485 27C49.593 27 52.557 27.522 55.251 28.449C56.025 27.51 59.289 24 64.695 24C66.891 26.193 65.838 31.968 65.001 34.782C67.509 37.617 68.985 40.98 68.985 44.46C68.985 52.551 63.273 58.512 51.303 59.751C54.597 61.47 57 66.3 57 69.939V78.141C57 78.453 56.931 78.678 56.895 78.945C70.923 74.028 81 60.708 81 45C81 25.119 64.881 9 45 9Z" fill="white"/>
</svg>
