<svg width="90" height="90" viewBox="0 0 90 90" fill="none" xmlns="http://www.w3.org/2000/svg">
<path d="M84.0001 20.8106C81.1291 22.0856 78.0451 22.9436 74.8081 23.3306C78.1141 21.3506 80.6491 18.2156 81.8431 14.4776C78.7531 16.3106 75.3271 17.6426 71.6791 18.3626C68.7601 15.2516 64.6021 13.3076 60.0001 13.3076C51.1621 13.3076 43.9981 20.4746 43.9981 29.3096C43.9981 30.5636 44.1421 31.7876 44.4121 32.9546C31.1131 32.2886 19.3231 25.9166 11.4271 16.2326C10.0531 18.5966 9.26407 21.3446 9.26407 24.2816C9.26407 29.8316 12.0871 34.7306 16.3801 37.5986C13.7581 37.5146 11.2891 36.7946 9.13207 35.5976C9.13207 35.6666 9.13207 35.7296 9.13207 35.7986C9.13207 43.5536 14.6461 50.0216 21.9691 51.4886C20.6281 51.8546 19.2121 52.0496 17.7511 52.0496C16.7221 52.0496 15.7171 51.9476 14.7421 51.7646C16.7791 58.1216 22.6891 62.7506 29.6911 62.8796C24.2161 67.1726 17.3161 69.7316 9.81607 69.7316C8.52607 69.7316 7.25107 69.6566 5.99707 69.5066C13.0801 74.0456 21.4891 76.6946 30.5281 76.6946C59.9641 76.6946 76.0561 52.3106 76.0561 31.1636C76.0561 30.4706 76.0411 29.7806 76.0111 29.0936C79.1401 26.8346 81.8551 24.0176 84.0001 20.8106Z" fill="white"/>
</svg>
