<svg width="78" height="64" viewBox="0 0 78 64" fill="none" xmlns="http://www.w3.org/2000/svg">
<path d="M78.003 7.503C75.132 8.778 72.048 9.636 68.811 10.023C72.117 8.043 74.652 4.908 75.846 1.17C72.756 3.003 69.33 4.335 65.682 5.055C62.763 1.944 58.605 0 54.003 0C45.165 0 38.001 7.167 38.001 16.002C38.001 17.256 38.145 18.48 38.415 19.647C25.116 18.981 13.326 12.609 5.43 2.925C4.056 5.289 3.267 8.037 3.267 10.974C3.267 16.524 6.09 21.423 10.383 24.291C7.761 24.207 5.292 23.487 3.135 22.29C3.135 22.359 3.135 22.422 3.135 22.491C3.135 30.246 8.649 36.714 15.972 38.181C14.631 38.547 13.215 38.742 11.754 38.742C10.725 38.742 9.72 38.64 8.745 38.457C10.782 44.814 16.692 49.443 23.694 49.572C18.219 53.865 11.319 56.424 3.819 56.424C2.529 56.424 1.254 56.349 0 56.199C7.083 60.738 15.492 63.387 24.531 63.387C53.967 63.387 70.059 39.003 70.059 17.856C70.059 17.163 70.044 16.473 70.014 15.786C73.143 13.527 75.858 10.71 78.003 7.503Z" fill="white"/>
</svg>
