<svg width="72" height="71" viewBox="0 0 72 71" fill="none" xmlns="http://www.w3.org/2000/svg">
<path d="M36 0C16.119 0 0 16.119 0 36C0 52.869 11.616 66.984 27.276 70.89C27.108 70.404 27 69.84 27 69.141V62.988C25.539 62.988 23.091 62.988 22.476 62.988C20.013 62.988 17.823 61.929 16.761 59.961C15.582 57.774 15.378 54.429 12.456 52.383C11.589 51.702 12.249 50.925 13.248 51.03C15.093 51.552 16.623 52.818 18.063 54.696C19.497 56.577 20.172 57.003 22.851 57.003C24.15 57.003 26.094 56.928 27.924 56.64C28.908 54.141 30.609 51.84 32.688 50.754C20.7 49.521 14.979 43.557 14.979 35.46C14.979 31.974 16.464 28.602 18.987 25.761C18.159 22.941 17.118 17.19 19.305 15C24.699 15 27.96 18.498 28.743 19.443C31.431 18.522 34.383 18 37.485 18C40.593 18 43.557 18.522 46.251 19.449C47.025 18.51 50.289 15 55.695 15C57.891 17.193 56.838 22.968 56.001 25.782C58.509 28.617 59.985 31.98 59.985 35.46C59.985 43.551 54.273 49.512 42.303 50.751C45.597 52.47 48 57.3 48 60.939V69.141C48 69.453 47.931 69.678 47.895 69.945C61.923 65.028 72 51.708 72 36C72 16.119 55.881 0 36 0Z" fill="white"/>
</svg>
